# xmcd
#
# Track frame offsets:
#	150
#	13622
#	29601
#	46667
#	59399
#	72555
#	87639
#	101703
#	116383
#	130066
#	143363
#	156610
#	161923
#
# Disc length: 2262 seconds
#
# Revision: 0
# Processed by: cddbd v1.5.2PL0 Copyright (c) Steve Scherf et al.
# Submitted via: EasyCDDAExtractor 15.3.0.1
#
DISCID=b508d40d
DTITLE=Mamas and Papas - Deliver
DYEAR=1967
DGENRE=
TTITLE0=Dedicated to the One I Love
TTITLE1=My Girl
TTITLE2=Creeque Alley
TTITLE3=Sing for Your Supper
TTITLE4=Twist and Shout
TTITLE5=Free Advice
TTITLE6=Look Through My Window
TTITLE7=Boys and Girls Together
TTITLE8=String Man
TTITLE9=Frustration
TTITLE10=Did You Ever Want to Cry
TTITLE11=John's Music Box
TTITLE12=Glad to Be Unhappy
EXTD=
EXTT0=
EXTT1=
EXTT2=
EXTT3=
EXTT4=
EXTT5=
EXTT6=
EXTT7=
EXTT8=
EXTT9=
EXTT10=
EXTT11=
EXTT12=
PLAYORDER=
